<svg xmlns="http://www.w3.org/2000/svg" viewBox="0 0 320 240" fill="none" stroke="#000" stroke-width="1.6" stroke-linecap="round" stroke-linejoin="round">
  <!-- Grano de café -->
  <g transform="translate(27 27) rotate(-18)">
    <ellipse cx="0" cy="0" rx="12" ry="8"/>
    <path d="M-10 4C-3 3-4-4 10-4"/>
  </g>

  <!-- Mariposa amarilla -->
  <g transform="translate(164 38)">
    <path d="M0 1C-6-10-17-11-18-4c-1 6 7 10 15 7-7 5-7 13-1 13 5 0 7-5 8-11"/>
    <path d="M0 1C6-10 17-11 18-4c1 6-7 10-15 7 7 5 7 13 1 13-5 0-7-5-8-11M0-2v15"/>
  </g>

  <!-- Palma de cera -->
  <g transform="translate(273 65)">
    <path d="M0 28C2 13 1 3 0-5"/>
    <path d="M0-4c-7-8-14-7-19-4 8 0 14 3 19 8M0-4c7-8 14-7 19-4-8 0-14 3-19 8M0-4c-2-8 1-14 5-18 0 8-1 14-5 20M0-4c2-8-1-14-5-18 0 8 1 14 5 20"/>
  </g>

  <!-- Canasto tejido -->
  <g transform="translate(72 151)">
    <path d="M-16-7h32l-3 21h-26L-16-7Z"/>
    <path d="M-8-7c0-11 16-11 16 0M-12 1h24M-10 8h20M-7-5l-2 18M7-5l2 18"/>
  </g>

  <!-- Cordillera -->
  <g transform="translate(152 187)">
    <path d="m-52 15 21-20 13 11L1-17 21 7 37-9l20 24"/>
    <path d="m-51 15 17-9 14 7L0 3l18 11 17-8 22 9"/>
  </g>

  <!-- Casita de pueblo -->
  <g transform="translate(264 176)">
    <path d="m-17-4 17-14L17-4M-13-7v22h26V-7M-5 15V2H5v13M-8-2H8"/>
  </g>

  <!-- Hojas de cafetal -->
  <g transform="translate(28 223)">
    <path d="M-18 4C-8-9 7-10 17-5 7 8-8 9-18 4ZM-14 3 12-4"/>
  </g>
</svg>
