<svg xmlns="http://www.w3.org/2000/svg" viewBox="0 0 512 512">
  <rect width="512" height="512" rx="112" fill="#0D0A08"/>
  <path d="M0 0h512v184H0z" fill="#FFC200"/>
  <path d="M0 184h512v104H0z" fill="#003087"/>
  <path d="M0 288h512v224H0z" fill="#CE1126"/>
  <circle cx="256" cy="256" r="142" fill="#1A1410" stroke="#FFF3E8" stroke-width="18"/>
  <path d="M155 274c8-63 54-109 107-109 56 0 98 45 98 104 0 47-42 83-102 83-48 0-91-29-103-78z" fill="#FFC200"/>
  <path d="M187 268c19 28 49 43 83 43 25 0 48-8 66-22" fill="none" stroke="#3D1F00" stroke-width="18" stroke-linecap="round"/>
</svg>
